<?xml version="1.0" encoding="UTF-8" standalone="no" ?>
<svg id="sun-icon" width="24" height="24" viewBox="0 0 24 24"><path fill-rule="evenodd" clip-rule="evenodd" d="M15.1058 0.408834C14.5723 0.265892 14.024 0.582475 13.881 1.11594L13.234 3.53075C13.091 4.06422 13.4076 4.61255 13.9411 4.7555C14.4746 4.89844 15.0229 4.58186 15.1658 4.04839L15.8129 1.63357C15.9558 1.10011 15.6392 0.551776 15.1058 0.408834ZM5.49994 11.9999C5.49994 15.5898 8.41009 18.4999 11.9999 18.4999C15.5898 18.4999 18.4999 15.5898 18.4999 11.9999C18.4999 8.41009 15.5898 5.49994 11.9999 5.49994C8.41009 5.49994 5.49994 8.41009 5.49994 11.9999ZM16.4999 11.9999C16.4999 14.4852 14.4852 16.4999 11.9999 16.4999C9.51466 16.4999 7.49994 14.4852 7.49994 11.9999C7.49994 9.51466 9.51466 7.49994 11.9999 7.49994C14.4852 7.49994 16.4999 9.51466 16.4999 11.9999ZM8.83406 19.9515C8.977 19.418 9.52534 19.1014 10.0588 19.2443C10.5923 19.3873 10.9088 19.9356 10.7659 20.4691L10.1189 22.8839C9.97592 23.4174 9.42758 23.734 8.89412 23.591C8.36065 23.4481 8.04407 22.8997 8.18701 22.3663L8.83406 19.9515ZM4.13873 15.3839C4.61702 15.1077 5.22861 15.2716 5.50475 15.7499C5.7809 16.2282 5.61702 16.8398 5.13873 17.1159L2.97366 18.3659C2.49537 18.6421 1.88378 18.4782 1.60764 17.9999C1.3315 17.5216 1.49537 16.91 1.97366 16.6339L4.13873 15.3839ZM22.3922 5.99994C22.1161 5.52165 21.5045 5.35777 21.0262 5.63391L18.8612 6.88391C18.3829 7.16006 18.219 7.77165 18.4951 8.24994C18.7713 8.72823 19.3829 8.89211 19.8612 8.61597L22.0262 7.36597C22.5045 7.08982 22.6684 6.47823 22.3922 5.99994ZM4.04839 8.83405C4.58186 8.97699 4.89844 9.52533 4.7555 10.0588C4.61256 10.5922 4.06422 10.9088 3.53076 10.7659L1.11594 10.1188C0.582475 9.97591 0.265892 9.42758 0.408834 8.89411C0.551776 8.36065 1.10011 8.04406 1.63358 8.187L4.04839 8.83405ZM23.5911 15.1057C23.734 14.5723 23.4174 14.0239 22.8839 13.881L20.4691 13.2339C19.9357 13.091 19.3873 13.4076 19.2444 13.941C19.1014 14.4745 19.418 15.0228 19.9515 15.1658L22.3663 15.8128C22.8998 15.9558 23.4481 15.6392 23.5911 15.1057ZM8.61597 4.13872C8.89211 4.61702 8.72824 5.22861 8.24994 5.50475C7.77165 5.78089 7.16006 5.61702 6.88392 5.13872L5.63392 2.97366C5.35778 2.49537 5.52165 1.88378 5.99994 1.60764C6.47824 1.33149 7.08983 1.49537 7.36597 1.97366L8.61597 4.13872ZM17.9999 22.3922C18.4782 22.1161 18.6421 21.5045 18.366 21.0262L17.116 18.8611C16.8398 18.3828 16.2282 18.2189 15.7499 18.4951C15.2717 18.7712 15.1078 19.3828 15.3839 19.8611L16.6339 22.0262C16.9101 22.5045 17.5217 22.6683 17.9999 22.3922Z" fill="currentColor" fill-opacity="0.85"></path></svg>