<?xml version="1.0" standalone="no"?>
<!DOCTYPE svg PUBLIC "-//W3C//DTD SVG 20010904//EN"
 "http://www.w3.org/TR/2001/REC-SVG-20010904/DTD/svg10.dtd">
<svg version="1.0" xmlns="http://www.w3.org/2000/svg"
 width="162.000000pt" height="162.000000pt" viewBox="0 0 162.000000 162.000000"
 preserveAspectRatio="xMidYMid meet">

<g transform="translate(0.000000,162.000000) scale(0.100000,-0.100000)"
fill="#000000" stroke="none">
<path d="M0 810 l0 -810 810 0 810 0 0 810 0 810 -810 0 -810 0 0 -810z m530
415 c5 -281 6 -286 46 -266 10 5 185 211 397 469 l60 72 178 0 c99 0 179 -4
179 -8 0 -4 -62 -81 -137 -171 -76 -90 -193 -230 -261 -310 -67 -80 -121 -150
-119 -154 1 -5 97 -132 212 -283 116 -152 238 -313 273 -360 l63 -84 -184 0
-184 0 -218 290 -218 290 -43 0 -44 0 0 -290 0 -290 -150 0 -150 0 0 685 0
686 148 -3 147 -3 5 -270z"/>
</g>
</svg>
