<svg width="0" height="0" class="hidden">
  <symbol xmlns="http://www.w3.org/2000/svg" viewBox="0 0 400 298" id="nuxt-icon">
    <g fill="none" fill-rule="nonzero">
      <path fill="#00C58E" d="M227.92099 82.07407l-13.6889 23.7037-46.8148-81.08641L23.7037 273.58025h97.3037c0 13.0912 10.61252 23.7037 23.70371 23.7037H23.70371c-8.46771 0-16.29145-4.52017-20.5246-11.85382-4.23315-7.33366-4.23272-16.36849.00114-23.70174L146.89383 12.83951c4.23415-7.33433 12.0596-11.85252 20.5284-11.85252 8.46878 0 16.29423 4.51819 20.52839 11.85252l39.97037 69.23456z"></path>
      <path fill="#2F495E" d="M331.6642 261.7284l-90.05432-155.95062-13.6889-23.7037-13.68888 23.7037-90.04445 155.95061c-4.23385 7.33325-4.23428 16.36808-.00113 23.70174 4.23314 7.33365 12.05689 11.85382 20.5246 11.85382h166.4c8.46946 0 16.29644-4.51525 20.532-11.84955 4.23555-7.3343 4.23606-16.37123.00132-23.706h.01976zM144.7111 273.58024L227.921 129.48148l83.19012 144.09877h-166.4z"></path>
      <path fill="#108775" d="M396.04938 285.4321c-4.23344 7.33254-12.05656 11.85185-20.52345 11.85185H311.1111c13.0912 0 23.7037-10.6125 23.7037-23.7037h40.66173L260.09877 73.74815l-18.4889 32.02963-13.68888-23.7037L239.5753 61.8963c4.23416-7.33433 12.0596-11.85252 20.5284-11.85252 8.46879 0 16.29423 4.51819 20.52839 11.85252l115.41728 199.8321c4.23426 7.33395 4.23426 16.36975 0 23.7037z"></path>
    </g>
  </symbol>
  <symbol xml:space="preserve" xmlns="http://www.w3.org/2000/svg" viewBox="0 0 26.354 18.733" id="my-logo-icon">
    <path d="m94.022 71.251 3.179 8.993 3.206 9.45h5.038l6.734-18.467h-4.874L102.84 84.2l-4.465-12.973z" transform="translate(-86.014 -71.094)"></path>
    <path d="m93.026 71.227-6.821 18.467h4.8l1.277-3.733h6.846l1.277 3.733h4.924l-6.821-18.467zm2.679 4.725 2.27 6.623h-4.54z" transform="translate(-86.014 -71.094)"></path>
  </symbol>
  <symbol version="1.1" xmlns="http://www.w3.org/2000/svg" viewBox="0 0 32 32" id="link-icon">
    <path d="M9.239 22.889c0.195 0.195 0.451 0.293 0.707 0.293s0.511-0.098 0.707-0.293l12.114-12.209c0.39-0.39 0.39-1.024 0-1.414s-1.023-0.39-1.414 0l-12.114 12.209c-0.391 0.39-0.391 1.023 0 1.414zM14.871 20.76c0.331 1.457-0.026 2.887-1.152 4.014l-4.039 3.914c-0.85 0.849-1.98 1.317-3.182 1.317s-2.332-0.468-3.182-1.317c-1.754-1.755-1.754-4.61-0.010-6.354l3.946-4.070c0.85-0.849 1.98-1.318 3.182-1.318 0.411 0 0.807 0.073 1.193 0.179l1.561-1.561c-0.871-0.407-1.811-0.619-2.754-0.619-1.663 0-3.327 0.635-4.596 1.904l-3.936 4.061c-2.538 2.538-2.538 6.654 0 9.193 1.269 1.27 2.933 1.904 4.596 1.904s3.327-0.634 4.596-1.904l4.030-3.904c1.942-1.942 2.361-4.648 1.333-7.023zM30.098 1.899c-1.27-1.269-2.933-1.904-4.596-1.904-1.664 0-3.328 0.635-4.596 1.904l-4.029 3.905c-2.012 2.013-2.423 5.015-1.244 7.439l1.552-1.552c-0.459-1.534-0.107-3.261 1.096-4.463l4.039-3.914c0.851-0.849 1.98-1.318 3.183-1.318 1.201 0 2.332 0.469 3.181 1.318 1.754 1.755 1.754 4.611 0.010 6.354l-4.039 4.039c-0.849 0.85-1.98 1.317-3.181 1.317-0.306 0-0.576 0.031-0.87-0.029l-1.593 1.594c0.796 0.331 1.613 0.436 2.463 0.436 1.663 0 3.326-0.634 4.596-1.904l4.029-4.029c2.538-2.538 2.538-6.653-0-9.192z"></path>
  </symbol>
  <symbol xmlns="http://www.w3.org/2000/svg" fill="#f03c2e" viewBox="0 0 16 16" id="git-icon">
    <path d="M15.698 7.287 8.712.302a1.03 1.03 0 0 0-1.457 0l-1.45 1.45 1.84 1.84a1.223 1.223 0 0 1 1.55 1.56l1.773 1.774a1.224 1.224 0 0 1 1.267 2.025 1.226 1.226 0 0 1-2.002-1.334L8.58 5.963v4.353a1.226 1.226 0 1 1-1.008-.036V5.887a1.226 1.226 0 0 1-.666-1.608L5.093 2.465l-4.79 4.79a1.03 1.03 0 0 0 0 1.457l6.986 6.986a1.03 1.03 0 0 0 1.457 0l6.953-6.953a1.031 1.031 0 0 0 0-1.457"></path>
  </symbol>
  <symbol xmlns="http://www.w3.org/2000/svg" aria-label="HTML5" role="img" viewBox="0 0 512 512" id="html-icon">
    <path fill="#e34f26" d="M71 460L30 0h451l-41 460-185 52"></path>
    <path fill="#ef652a" d="M256 472l149-41 35-394H256"></path>
    <path fill="#ebebeb" d="M256 208h-75l-5-58h80V94H114l15 171h127zm-1 147l-63-17-4-45h-56l7 89 116 32z"></path>
    <path fill="#ffffff" d="M255 208v57h70l-7 73-63 17v59l116-32 16-174zm0-114v56h137l5-56z"></path>
  </symbol>
  <symbol xmlns="http://www.w3.org/2000/svg" preserveAspectRatio="xMinYMin meet" viewBox="0 0 256 256" id="javascript-icon">
    <path d="M0 0h256v256H0V0z" fill="#F7DF1E"></path>
    <path d="M67.312 213.932l19.59-11.856c3.78 6.701 7.218 12.371 15.465 12.371 7.905 0 12.89-3.092 12.89-15.12v-81.798h24.057v82.138c0 24.917-14.606 36.259-35.916 36.259-19.245 0-30.416-9.967-36.087-21.996M152.381 211.354l19.588-11.341c5.157 8.421 11.859 14.607 23.715 14.607 9.969 0 16.325-4.984 16.325-11.858 0-8.248-6.53-11.17-17.528-15.98l-6.013-2.58c-17.357-7.387-28.87-16.667-28.87-36.257 0-18.044 13.747-31.792 35.228-31.792 15.294 0 26.292 5.328 34.196 19.247L210.29 147.43c-4.125-7.389-8.591-10.31-15.465-10.31-7.046 0-11.514 4.468-11.514 10.31 0 7.217 4.468 10.14 14.778 14.608l6.014 2.577c20.45 8.765 31.963 17.7 31.963 37.804 0 21.654-17.012 33.51-39.867 33.51-22.339 0-36.774-10.654-43.819-24.574"></path>
  </symbol>
  <symbol version="1.1" xmlns="http://www.w3.org/2000/svg" xmlns:xlink="http://www.w3.org/1999/xlink" viewBox="0 0 210 210" id="prettier-icon">
    <title>prettier-icon-dark</title>
    <desc>Created with sketchtool.</desc>
    <defs></defs>
    <g id="key" stroke="none" stroke-width="1" fill="none" fill-rule="evenodd">
      <g id="prettier-icon-dark">
        <g id="Icon-(Dark)">
          <g id="line-11" transform="translate(0.000000, 200.000000)">
            <rect id="line-11-dash-3" fill="#4D616E" opacity="0.5" x="150" y="0" width="60" height="10" rx="5"></rect>
            <rect id="line-11-dash-2" fill="#4D616E" opacity="0.5" x="70" y="0" width="70" height="10" rx="5"></rect>
            <rect id="line-11-dash-1" fill="#EA5E5E" x="0" y="0" width="60" height="10" rx="5"></rect>
          </g>
          <g id="line-10" transform="translate(0.000000, 180.000000)">
            <rect id="line-10-dash-5" fill="#4D616E" opacity="0.5" x="160" y="0" width="50" height="10" rx="5"></rect>
            <rect id="line-10-dash-4" fill="#4D616E" opacity="0.5" x="130" y="0" width="20" height="10" rx="5"></rect>
            <rect id="line-10-dash-3" fill="#4D616E" opacity="0.5" x="70" y="0" width="50" height="10" rx="5"></rect>
            <rect id="line-10-dash-2" fill="#F7B93E" x="40" y="0" width="20" height="10" rx="5"></rect>
            <rect id="line-10-dash-1" fill="#56B3B4" x="0" y="0" width="30" height="10" rx="5"></rect>
          </g>
          <g id="line-9" transform="translate(0.000000, 160.000000)">
            <rect id="line-9-dash-3" fill="#4D616E" opacity="0.5" x="110" y="0" width="100" height="10" rx="5"></rect>
            <rect id="line-9-dash-2" fill="#4D616E" opacity="0.5" x="70" y="0" width="30" height="10" rx="5"></rect>
            <rect id="line-9-dash-1" fill="#BF85BF" x="0" y="0" width="60" height="10" rx="5"></rect>
          </g>
          <g id="line-8" transform="translate(0.000000, 140.000000)">
            <rect id="line-8-dash-4" fill="#4D616E" opacity="0.5" x="180" y="0" width="30" height="10" rx="5"></rect>
            <rect id="line-8-dash-3" fill="#4D616E" opacity="0.5" x="140" y="0" width="30" height="10" rx="5"></rect>
            <rect id="line-8-dash-2" fill="#F7B93E" x="30" y="0" width="100" height="10" rx="5"></rect>
            <rect id="line-8-dash-1" fill="#BF85BF" x="0" y="0" width="20" height="10" rx="5"></rect>
          </g>
          <g id="line-7" transform="translate(0.000000, 120.000000)">
            <rect id="line-7-dash-4" fill="#4D616E" opacity="0.5" x="170" y="0" width="40" height="10" rx="5"></rect>
            <rect id="line-7-dash-3" fill="#BF85BF" x="120" y="0" width="40" height="10" rx="5"></rect>
            <rect id="line-7-dash-2" fill="#EA5E5E" x="60" y="0" width="50" height="10" rx="5"></rect>
            <rect id="line-7-dash-1" fill="#56B3B4" x="0" y="0" width="50" height="10" rx="5"></rect>
          </g>
          <g id="line-6" transform="translate(0.000000, 100.000000)">
            <rect id="line-6-dash-4" fill="#4D616E" opacity="0.5" x="180" y="0" width="30" height="10" rx="5"></rect>
            <rect id="line-6-dash-3" fill="#56B3B4" x="80" y="0" width="90" height="10" rx="5"></rect>
            <rect id="line-6-dash-2" fill="#F7B93E" x="30" y="0" width="40" height="10" rx="5"></rect>
            <rect id="line-6-dash-1" fill="#EA5E5E" x="0" y="0" width="20" height="10" rx="5"></rect>
          </g>
          <g id="line-5" transform="translate(0.000000, 80.000000)">
            <rect id="line-5-dash-4" fill="#4D616E" opacity="0.5" x="190" y="0" width="20" height="10" rx="5"></rect>
            <rect id="line-5-dash-3" fill="#F7B93E" x="120" y="0" width="60" height="10" rx="5"></rect>
            <rect id="line-5-dash-2" fill="#4D616E" opacity="0.5" x="70" y="0" width="40" height="10" rx="5"></rect>
            <rect id="line-5-dash-1" fill="#BF85BF" x="0" y="0" width="60" height="10" rx="5"></rect>
          </g>
          <g id="line-4" transform="translate(0.000000, 60.000000)">
            <rect id="line-4-dash-5" fill="#4D616E" opacity="0.5" x="190" y="0" width="20" height="10" rx="5"></rect>
            <rect id="line-4-dash-4" fill="#EA5E5E" x="120" y="0" width="60" height="10" rx="5"></rect>
            <rect id="line-4-dash-3" fill="#4D616E" opacity="0.5" x="70" y="0" width="40" height="10" rx="5"></rect>
            <rect id="line-4-dash-2" fill="#56B3B4" x="40" y="0" width="20" height="10" rx="5"></rect>
            <rect id="line-4-dash-1" fill="#F7B93E" x="0" y="0" width="30" height="10" rx="5"></rect>
          </g>
          <g id="line-3" transform="translate(0.000000, 40.000000)">
            <rect id="line-3-dash-4" fill="#4D616E" opacity="0.5" x="180" y="0" width="30" height="10" rx="5"></rect>
            <rect id="line-3-dash-3" fill="#56B3B4" x="150" y="0" width="20" height="10" rx="5"></rect>
            <rect id="line-3-dash-2" fill="#BF85BF" x="90" y="0" width="50" height="10" rx="5"></rect>
            <rect id="line-3-dash-1" fill="#56B3B4" x="0" y="0" width="80" height="10" rx="5"></rect>
          </g>
          <g id="line-2" transform="translate(0.000000, 20.000000)">
            <rect id="line-2-dash-3" fill="#4D616E" opacity="0.5" x="170" y="0" width="40" height="10" rx="5"></rect>
            <rect id="line-2-dash-2" fill="#F7B93E" x="50" y="0" width="110" height="10" rx="5"></rect>
            <rect id="line-2-dash-1" fill="#EA5E5E" x="0" y="0" width="40" height="10" rx="5"></rect>
          </g>
          <g id="line-1">
            <rect id="line-1-dash-2" fill="#4D616E" opacity="0.5" x="140" y="0" width="70" height="10" rx="5"></rect>
            <rect id="line-1-dash-1" fill="#56B3B4" x="0" y="0" width="130" height="10" rx="5"></rect>
          </g>
        </g>
      </g>
    </g>
  </symbol>
  <symbol xmlns="http://www.w3.org/2000/svg" aria-label="Sass" role="img" viewBox="0 0 512 512" id="scss-icon">
    <rect width="512" height="512" rx="15%" fill="#c69"></rect>
    <path d="M258,88c-96,33-158,100-152,140s66,72,93,93h0c-35,18-79,45-78,80,2,48,54,33,76,19s44-53,30-94c31-8,58,2,66,8,31,22,15,47,4,51s-4,6,3,4,22-12,22-29c0-43-46-63-103-48-33-35-78-51-76-89,1-14,6-50,95-95s152-27,144,14c-12,62-120,104-158,68-2-4-9-7-5,4,20,50,182,27,189-79C410,79,329,64,258,88ZM172,408c-25,8-24-8-23-14,3-17,17-38,59-59C220,373,193,402,172,408Z" fill="#ffffff"></path>
  </symbol>
  <symbol version="1.1" xmlns="http://www.w3.org/2000/svg" xmlns:xlink="http://www.w3.org/1999/xlink" preserveAspectRatio="xMidYMid" viewBox="0 -14 256 256" id="react-icon">
    <g>
      <path d="M210.483381,73.8236374 C207.827698,72.9095503 205.075867,72.0446761 202.24247,71.2267368 C202.708172,69.3261098 203.135596,67.4500894 203.515631,65.6059664 C209.753843,35.3248922 205.675082,10.9302478 191.747328,2.89849283 C178.392359,-4.80289661 156.551327,3.22703567 134.492936,22.4237776 C132.371761,24.2697233 130.244662,26.2241201 128.118477,28.2723861 C126.701777,26.917204 125.287358,25.6075897 123.876584,24.3549348 C100.758745,3.82852863 77.5866802,-4.82157937 63.6725966,3.23341515 C50.3303869,10.9571328 46.3792156,33.8904224 51.9945178,62.5880206 C52.5367729,65.3599011 53.1706189,68.1905639 53.8873982,71.068617 C50.6078941,71.9995641 47.4418534,72.9920277 44.4125156,74.0478303 C17.3093297,83.497195 0,98.3066828 0,113.667995 C0,129.533287 18.5815786,145.446423 46.8116526,155.095373 C49.0394553,155.856809 51.3511025,156.576778 53.7333796,157.260293 C52.9600965,160.37302 52.2875179,163.423318 51.7229345,166.398431 C46.3687351,194.597975 50.5500231,216.989464 63.8566899,224.664425 C77.6012619,232.590464 100.66852,224.443422 123.130185,204.809231 C124.905501,203.257196 126.687196,201.611293 128.472081,199.886102 C130.785552,202.113904 133.095375,204.222319 135.392897,206.199955 C157.14963,224.922338 178.637969,232.482469 191.932332,224.786092 C205.663234,216.837268 210.125675,192.78347 204.332202,163.5181 C203.88974,161.283006 203.374826,158.99961 202.796573,156.675661 C204.416503,156.196743 206.006814,155.702335 207.557482,155.188332 C236.905331,145.46465 256,129.745175 256,113.667995 C256,98.2510906 238.132466,83.3418093 210.483381,73.8236374 L210.483381,73.8236374 Z M204.118035,144.807565 C202.718197,145.270987 201.281904,145.718918 199.818271,146.153177 C196.578411,135.896354 192.205739,124.989735 186.854729,113.72131 C191.961041,102.721277 196.164656,91.9540963 199.313837,81.7638014 C201.93261,82.5215915 204.474374,83.3208483 206.923636,84.1643056 C230.613348,92.3195488 245.063763,104.377206 245.063763,113.667995 C245.063763,123.564379 229.457753,136.411268 204.118035,144.807565 L204.118035,144.807565 Z M193.603754,165.642007 C196.165567,178.582766 196.531475,190.282717 194.834536,199.429057 C193.309843,207.64764 190.243595,213.12715 186.452366,215.321689 C178.384612,219.991462 161.131788,213.921395 142.525146,197.909832 C140.392124,196.074366 138.243609,194.114502 136.088259,192.040261 C143.301619,184.151133 150.510878,174.979732 157.54698,164.793993 C169.922699,163.695814 181.614905,161.900447 192.218042,159.449363 C192.740247,161.555956 193.204126,163.621993 193.603754,165.642007 L193.603754,165.642007 Z M87.2761866,214.514686 C79.3938934,217.298414 73.1160375,217.378157 69.3211631,215.189998 C61.2461189,210.532528 57.8891498,192.554265 62.4682434,168.438039 C62.9927272,165.676183 63.6170041,162.839142 64.3365173,159.939216 C74.8234575,162.258154 86.4299951,163.926841 98.8353334,164.932519 C105.918826,174.899534 113.336329,184.06091 120.811247,192.08264 C119.178102,193.65928 117.551336,195.16028 115.933685,196.574699 C106.001303,205.256705 96.0479605,211.41654 87.2761866,214.514686 L87.2761866,214.514686 Z M50.3486141,144.746959 C37.8658105,140.48046 27.5570398,134.935332 20.4908634,128.884403 C14.1414664,123.446815 10.9357817,118.048415 10.9357817,113.667995 C10.9357817,104.34622 24.8334611,92.4562517 48.0123604,84.3748281 C50.8247961,83.3942121 53.7689223,82.4701001 56.8242337,81.6020363 C60.0276398,92.0224477 64.229889,102.917218 69.3011135,113.93411 C64.1642716,125.11459 59.9023288,136.182975 56.6674809,146.725506 C54.489347,146.099407 52.3791089,145.440499 50.3486141,144.746959 L50.3486141,144.746959 Z M62.7270678,60.4878073 C57.9160346,35.9004118 61.1112387,17.3525532 69.1516515,12.6982729 C77.7160924,7.74005624 96.6544653,14.8094222 116.614922,32.5329619 C117.890816,33.6657739 119.171723,34.8514442 120.456275,36.0781256 C113.018267,44.0647686 105.66866,53.1573386 98.6480514,63.0655695 C86.6081646,64.1815215 75.0831931,65.9741531 64.4868907,68.3746571 C63.8206914,65.6948233 63.2305903,63.0619242 62.7270678,60.4878073 L62.7270678,60.4878073 Z M173.153901,87.7550367 C170.620796,83.3796304 168.020249,79.1076627 165.369124,74.9523483 C173.537126,75.9849113 181.362914,77.3555864 188.712066,79.0329319 C186.505679,86.1041206 183.755673,93.4974728 180.518546,101.076741 C178.196419,96.6680702 175.740322,92.2229454 173.153901,87.7550367 L173.153901,87.7550367 Z M128.122121,43.8938899 C133.166461,49.3588189 138.218091,55.4603279 143.186789,62.0803968 C138.179814,61.8439007 133.110868,61.720868 128.000001,61.720868 C122.937434,61.720868 117.905854,61.8411667 112.929865,62.0735617 C117.903575,55.515009 122.99895,49.4217021 128.122121,43.8938899 L128.122121,43.8938899 Z M82.8018984,87.830679 C80.2715265,92.2183886 77.8609975,96.6393627 75.5753239,101.068539 C72.3906004,93.5156998 69.6661103,86.0886276 67.440586,78.9171899 C74.7446255,77.2826781 82.5335049,75.9461789 90.6495601,74.9332099 C87.9610684,79.1268011 85.3391054,83.4302106 82.8018984,87.8297677 L82.8018984,87.830679 L82.8018984,87.830679 Z M90.8833221,153.182899 C82.4979621,152.247395 74.5919739,150.979704 67.289757,149.390303 C69.5508242,142.09082 72.3354636,134.505173 75.5876271,126.789657 C77.8792246,131.215644 80.2993228,135.638441 82.8451877,140.03572 L82.8456433,140.03572 C85.4388987,144.515476 88.1255676,148.90364 90.8833221,153.182899 L90.8833221,153.182899 Z M128.424691,184.213105 C123.24137,178.620587 118.071264,172.434323 113.021912,165.780078 C117.923624,165.972373 122.921029,166.0708 128.000001,166.0708 C133.217953,166.0708 138.376211,165.953235 143.45336,165.727219 C138.468257,172.501308 133.434855,178.697141 128.424691,184.213105 L128.424691,184.213105 Z M180.622896,126.396409 C184.044571,134.195313 186.929004,141.741317 189.219234,148.9164 C181.796719,150.609693 173.782736,151.973534 165.339049,152.986959 C167.996555,148.775595 170.619884,144.430263 173.197646,139.960532 C175.805484,135.438399 178.28163,130.90943 180.622896,126.396409 L180.622896,126.396409 Z M163.724586,134.496971 C159.722835,141.435557 155.614455,148.059271 151.443648,154.311611 C143.847063,154.854776 135.998946,155.134562 128.000001,155.134562 C120.033408,155.134562 112.284171,154.887129 104.822013,154.402745 C100.48306,148.068386 96.285368,141.425078 92.3091341,134.556664 L92.3100455,134.556664 C88.3442923,127.706935 84.6943232,120.799333 81.3870228,113.930466 C84.6934118,107.045648 88.3338117,100.130301 92.276781,93.292874 L92.2758697,93.294241 C96.2293193,86.4385872 100.390102,79.8276317 104.688954,73.5329157 C112.302398,72.9573964 120.109505,72.6571055 127.999545,72.6571055 L128.000001,72.6571055 C135.925583,72.6571055 143.742714,72.9596746 151.353879,73.5402067 C155.587114,79.7888993 159.719645,86.3784378 163.688588,93.2350031 C167.702644,100.168578 171.389978,107.037901 174.724618,113.77508 C171.400003,120.627999 167.720871,127.566587 163.724586,134.496971 L163.724586,134.496971 Z M186.284677,12.3729198 C194.857321,17.3165548 198.191049,37.2542268 192.804953,63.3986692 C192.461372,65.0669011 192.074504,66.7661189 191.654369,68.4881206 C181.03346,66.0374921 169.500286,64.2138746 157.425315,63.0810626 C150.391035,53.0639249 143.101577,43.9572289 135.784778,36.073113 C137.751934,34.1806885 139.716356,32.3762092 141.672575,30.673346 C160.572216,14.2257007 178.236518,7.73185406 186.284677,12.3729198 L186.284677,12.3729198 Z M128.000001,90.8080696 C140.624975,90.8080696 150.859926,101.042565 150.859926,113.667995 C150.859926,126.292969 140.624975,136.527922 128.000001,136.527922 C115.375026,136.527922 105.140075,126.292969 105.140075,113.667995 C105.140075,101.042565 115.375026,90.8080696 128.000001,90.8080696 L128.000001,90.8080696 Z" fill="#00D8FF"></path>
    </g>
  </symbol>
  <symbol version="1.1" xmlns="http://www.w3.org/2000/svg" xmlns:xlink="http://www.w3.org/1999/xlink" preserveAspectRatio="xMidYMid" viewBox="0 0 256 256" id="telegram-icon">
    <g>
      <path d="M128,0 C57.307,0 0,57.307 0,128 L0,128 C0,198.693 57.307,256 128,256 L128,256 C198.693,256 256,198.693 256,128 L256,128 C256,57.307 198.693,0 128,0 L128,0 Z" fill="#40B3E0"></path>
      <path d="M190.2826,73.6308 L167.4206,188.8978 C167.4206,188.8978 164.2236,196.8918 155.4306,193.0548 L102.6726,152.6068 L83.4886,143.3348 L51.1946,132.4628 C51.1946,132.4628 46.2386,130.7048 45.7586,126.8678 C45.2796,123.0308 51.3546,120.9528 51.3546,120.9528 L179.7306,70.5928 C179.7306,70.5928 190.2826,65.9568 190.2826,73.6308" fill="#FFFFFF"></path>
      <path d="M98.6178,187.6035 C98.6178,187.6035 97.0778,187.4595 95.1588,181.3835 C93.2408,175.3085 83.4888,143.3345 83.4888,143.3345 L161.0258,94.0945 C161.0258,94.0945 165.5028,91.3765 165.3428,94.0945 C165.3428,94.0945 166.1418,94.5735 163.7438,96.8115 C161.3458,99.0505 102.8328,151.6475 102.8328,151.6475" fill="#D2E5F1"></path>
      <path d="M122.9015,168.1154 L102.0335,187.1414 C102.0335,187.1414 100.4025,188.3794 98.6175,187.6034 L102.6135,152.2624" fill="#B5CFE4"></path>
    </g>
  </symbol>
  <symbol fill="none" xmlns="http://www.w3.org/2000/svg" viewBox="0 0 100 100" id="vscode-icon">
    <mask id="mask0" maskType="alpha" maskUnits="userSpaceOnUse" x="0" y="0" width="100" height="100">
      <path fill-rule="evenodd" clip-rule="evenodd" d="M70.9119 99.3171C72.4869 99.9307 74.2828 99.8914 75.8725 99.1264L96.4608 89.2197C98.6242 88.1787 100 85.9892 100 83.5872V16.4133C100 14.0113 98.6243 11.8218 96.4609 10.7808L75.8725 0.873756C73.7862 -0.130129 71.3446 0.11576 69.5135 1.44695C69.252 1.63711 69.0028 1.84943 68.769 2.08341L29.3551 38.0415L12.1872 25.0096C10.589 23.7965 8.35363 23.8959 6.86933 25.2461L1.36303 30.2549C-0.452552 31.9064 -0.454633 34.7627 1.35853 36.417L16.2471 50.0001L1.35853 63.5832C-0.454633 65.2374 -0.452552 68.0938 1.36303 69.7453L6.86933 74.7541C8.35363 76.1043 10.589 76.2037 12.1872 74.9905L29.3551 61.9587L68.769 97.9167C69.3925 98.5406 70.1246 99.0104 70.9119 99.3171ZM75.0152 27.2989L45.1091 50.0001L75.0152 72.7012V27.2989Z" fill="white"></path>
    </mask>
    <g mask="url(#mask0)">
      <path d="M96.4614 10.7962L75.8569 0.875542C73.4719 -0.272773 70.6217 0.211611 68.75 2.08333L1.29858 63.5832C-0.515693 65.2373 -0.513607 68.0937 1.30308 69.7452L6.81272 74.754C8.29793 76.1042 10.5347 76.2036 12.1338 74.9905L93.3609 13.3699C96.086 11.3026 100 13.2462 100 16.6667V16.4275C100 14.0265 98.6246 11.8378 96.4614 10.7962Z" fill="#0065A9"></path>
      <g filter="url(#filter0_d)">
        <path d="M96.4614 89.2038L75.8569 99.1245C73.4719 100.273 70.6217 99.7884 68.75 97.9167L1.29858 36.4169C-0.515693 34.7627 -0.513607 31.9063 1.30308 30.2548L6.81272 25.246C8.29793 23.8958 10.5347 23.7964 12.1338 25.0095L93.3609 86.6301C96.086 88.6974 100 86.7538 100 83.3334V83.5726C100 85.9735 98.6246 88.1622 96.4614 89.2038Z" fill="#007ACC"></path>
      </g>
      <g filter="url(#filter1_d)">
        <path d="M75.8578 99.1263C73.4721 100.274 70.6219 99.7885 68.75 97.9166C71.0564 100.223 75 98.5895 75 95.3278V4.67213C75 1.41039 71.0564 -0.223106 68.75 2.08329C70.6219 0.211402 73.4721 -0.273666 75.8578 0.873633L96.4587 10.7807C98.6234 11.8217 100 14.0112 100 16.4132V83.5871C100 85.9891 98.6234 88.1786 96.4586 89.2196L75.8578 99.1263Z" fill="#1F9CF0"></path>
      </g>
      <g opacity="0.25">
        <path fill-rule="evenodd" clip-rule="evenodd" d="M70.8511 99.3171C72.4261 99.9306 74.2221 99.8913 75.8117 99.1264L96.4 89.2197C98.5634 88.1787 99.9392 85.9892 99.9392 83.5871V16.4133C99.9392 14.0112 98.5635 11.8217 96.4001 10.7807L75.8117 0.873695C73.7255 -0.13019 71.2838 0.115699 69.4527 1.44688C69.1912 1.63705 68.942 1.84937 68.7082 2.08335L29.2943 38.0414L12.1264 25.0096C10.5283 23.7964 8.29285 23.8959 6.80855 25.246L1.30225 30.2548C-0.513334 31.9064 -0.515415 34.7627 1.29775 36.4169L16.1863 50L1.29775 63.5832C-0.515415 65.2374 -0.513334 68.0937 1.30225 69.7452L6.80855 74.754C8.29285 76.1042 10.5283 76.2036 12.1264 74.9905L29.2943 61.9586L68.7082 97.9167C69.3317 98.5405 70.0638 99.0104 70.8511 99.3171ZM74.9544 27.2989L45.0483 50L74.9544 72.7012V27.2989Z" fill="url(#paint0_linear)"></path>
      </g>
    </g>
  </symbol>
  <symbol version="1.1" xmlns="http://www.w3.org/2000/svg" viewBox="0 0 261.76 226.69" id="vue-icon">
    <g transform="matrix(1.3333 0 0 -1.3333 -76.311 313.34)">
      <g transform="translate(178.06 235.01)">
        <path d="m0 0-22.669-39.264-22.669 39.264h-75.491l98.16-170.02 98.16 170.02z" fill="#41b883"></path>
      </g>
      <g transform="translate(178.06 235.01)">
        <path d="m0 0-22.669-39.264-22.669 39.264h-36.227l58.896-102.01 58.896 102.01z" fill="#34495e"></path>
      </g>
    </g>
  </symbol>
  <symbol version="1.1" xmlns="http://www.w3.org/2000/svg" xmlns:xlink="http://www.w3.org/1999/xlink" preserveAspectRatio="xMidYMid" viewBox="-17 0 290 290" id="webpack-icon">
    <g>
      <polygon fill="#FFFFFF" points="128 0.0483018868 256 72.4528302 256 217.310189 128 289.714717 0 217.310189 0 72.4528302"></polygon>
      <path d="M233.153208,212.286792 L132.250566,269.427925 L132.250566,224.990189 L195.139623,190.357736 L233.153208,212.286792 Z M240.060377,206.055849 L240.060377,86.6535849 L203.157736,107.954717 L203.157736,184.754717 L240.060377,206.055849 Z M22.4603774,212.286792 L123.363019,269.379623 L123.363019,224.941887 L60.4739623,190.357736 L22.4603774,212.286792 L22.4603774,212.286792 Z M15.5532075,206.055849 L15.5532075,86.6535849 L52.4558491,107.954717 L52.4558491,184.754717 L15.5532075,206.055849 L15.5532075,206.055849 Z M19.8520755,78.925283 L123.363019,20.3833962 L123.363019,63.3720755 L57.0445283,99.84 L56.5132075,100.129811 L19.8520755,78.925283 L19.8520755,78.925283 Z M235.713208,78.925283 L132.250566,20.3833962 L132.250566,63.3720755 L198.520755,99.8883019 L199.052075,100.178113 L235.713208,78.925283 L235.713208,78.925283 Z" fill="#8ED6FB"></path>
      <path d="M123.363019,214.846792 L61.3433962,180.697358 L61.3433962,113.123019 L123.363019,148.914717 L123.363019,214.846792 L123.363019,214.846792 Z M132.250566,214.846792 L194.270189,180.74566 L194.270189,113.123019 L132.250566,148.914717 L132.250566,214.846792 Z M65.4973585,105.298113 L127.806792,71.0520755 L190.067925,105.298113 L127.806792,141.234717 L65.4973585,105.298113 L65.4973585,105.298113 Z" fill="#1C78C0"></path>
    </g>
  </symbol>
  <symbol version="1.1" xmlns="http://www.w3.org/2000/svg" xmlns:xlink="http://www.w3.org/1999/xlink" preserveAspectRatio="xMidYMid" viewBox="0 -0.5 256 256" id="wordpress-icon">
    <g fill="#464342">
      <path d="M18.1239675,127.500488 C18.1239675,170.795707 43.284813,208.211252 79.7700163,225.941854 L27.5938862,82.985626 C21.524813,96.5890081 18.1239675,111.643057 18.1239675,127.500488 L18.1239675,127.500488 Z M201.345041,121.980878 C201.345041,108.462829 196.489366,99.1011382 192.324683,91.8145041 C186.780098,82.8045528 181.583089,75.1745041 181.583089,66.1645528 C181.583089,56.1097886 189.208976,46.7501789 199.950569,46.7501789 C200.435512,46.7501789 200.89548,46.8105366 201.367935,46.8375935 C181.907772,29.0091707 155.981008,18.1239675 127.50465,18.1239675 C89.2919675,18.1239675 55.6727154,37.7298211 36.1147317,67.4258211 C38.6809756,67.5028293 41.0994472,67.5569431 43.1536911,67.5569431 C54.5946016,67.5569431 72.3043902,66.1687154 72.3043902,66.1687154 C78.2007154,65.8211382 78.8958699,74.4814309 73.0057886,75.1786667 C73.0057886,75.1786667 67.0803252,75.8759024 60.4867642,76.2213984 L100.318699,194.699447 L124.25574,122.909138 L107.214049,76.2172358 C101.323967,75.8717398 95.744,75.1745041 95.744,75.1745041 C89.8497561,74.8290081 90.540748,65.8169756 96.4349919,66.1645528 C96.4349919,66.1645528 114.498602,67.5527805 125.246439,67.5527805 C136.685268,67.5527805 154.397138,66.1645528 154.397138,66.1645528 C160.297626,65.8169756 160.990699,74.4772683 155.098537,75.1745041 C155.098537,75.1745041 149.160585,75.8717398 142.579512,76.2172358 L182.107577,193.798244 L193.017756,157.340098 C197.746472,142.211122 201.345041,131.34465 201.345041,121.980878 L201.345041,121.980878 Z M129.42361,137.068228 L96.6056585,232.43135 C106.404423,235.31187 116.76722,236.887415 127.50465,236.887415 C140.242211,236.887415 152.457366,234.685398 163.827512,230.68722 C163.534049,230.218927 163.267642,229.721496 163.049106,229.180358 L129.42361,137.068228 L129.42361,137.068228 Z M223.481756,75.0225691 C223.95213,78.5066667 224.218537,82.2467642 224.218537,86.2699187 C224.218537,97.3694959 222.145561,109.846894 215.901659,125.448325 L182.490537,222.04774 C215.00878,203.085008 236.881171,167.854829 236.881171,127.502569 C236.883252,108.485724 232.025496,90.603187 223.481756,75.0225691 L223.481756,75.0225691 Z M127.50465,0 C57.2003902,0 0,57.1962276 0,127.500488 C0,197.813073 57.2003902,255.00722 127.50465,255.00722 C197.806829,255.00722 255.015545,197.813073 255.015545,127.500488 C255.013463,57.1962276 197.806829,0 127.50465,0 L127.50465,0 Z M127.50465,249.162927 C60.4243252,249.162927 5.84637398,194.584976 5.84637398,127.500488 C5.84637398,60.4201626 60.4222439,5.84637398 127.50465,5.84637398 C194.582894,5.84637398 249.156683,60.4201626 249.156683,127.500488 C249.156683,194.584976 194.582894,249.162927 127.50465,249.162927 L127.50465,249.162927 Z"></path>
    </g>
  </symbol>
  <symbol xmlns="http://www.w3.org/2000/svg" viewBox="0 0 1024 1024" id="arrow-down-icon">
    <path d="M831.872 340.864 512 652.672 192.128 340.864a30.592 30.592 0 0 0-42.752 0 29.12 29.12 0 0 0 0 41.6L489.664 714.24a32 32 0 0 0 44.672 0l340.288-331.712a29.12 29.12 0 0 0 0-41.728 30.592 30.592 0 0 0-42.752 0z"></path>
  </symbol>
  <symbol version="1.1" xmlns="http://www.w3.org/2000/svg" xmlns:xlink="http://www.w3.org/1999/xlink" preserveAspectRatio="xMidYMid" viewBox="0 -15.5 256 256" id="eslint-icon">
    <g>
      <path d="M77.9645944,80.5683518 L126.534904,52.5264993 C127.750365,51.8245002 129.248632,51.8245002 130.464093,52.5264993 L179.035406,80.5683518 C180.249864,81.2703508 181,82.5670433 181,83.9710413 L181,140.054746 C181,141.457742 180.249864,142.755437 179.035406,143.458439 L130.464093,171.500291 C129.248632,172.20229 127.750365,172.20229 126.534904,171.500291 L77.9645944,143.458439 C76.7491332,142.75644 76,141.458744 76,140.054746 L76,83.9710413 C76.0010029,82.5670433 76.7501361,81.2703508 77.9645944,80.5683518" fill="#8080F2"></path>
      <path d="M254.4167,107.416596 L196.323141,6.34980392 C194.212911,2.69552941 190.314709,-1.42108547e-14 186.095253,-1.42108547e-14 L69.9061271,-1.42108547e-14 C65.6856677,-1.42108547e-14 61.7864612,2.69552941 59.6762315,6.34980392 L1.58267227,107.193725 C-0.527557422,110.849004 -0.527557422,115.462024 1.58267227,119.117302 L59.6762315,219.355859 C61.7864612,223.010133 65.6856677,224.878431 69.9061271,224.878431 L186.094249,224.878431 C190.313705,224.878431 194.212911,223.066353 196.322137,219.411075 L254.415696,119.008878 C256.527934,115.355608 256.527934,111.070871 254.4167,107.416596 L254.4167,107.416596 Z M206.312097,156.016439 C206.312097,157.502243 205.417609,158.876612 204.129585,159.620518 L130.130998,202.31429 C128.843979,203.057192 127.231691,203.057192 125.944672,202.31429 L51.8888615,159.620518 C50.6018422,158.876612 49.7013303,157.503247 49.7013303,156.016439 L49.7013303,70.6278902 C49.7013303,69.1410824 50.5887913,67.7677176 51.8768145,67.0238118 L125.87239,24.3300392 C127.159409,23.5861333 128.769689,23.5861333 130.056708,24.3300392 L204.117538,67.0238118 C205.405562,67.7677176 206.312097,69.1410824 206.312097,70.6278902 L206.312097,156.016439 L206.312097,156.016439 Z" fill="#4B32C3"></path>
    </g>
  </symbol>
  <symbol xmlns="http://www.w3.org/2000/svg" viewBox="0 0 1024 1024" id="arrow-left-icon">
    <path d="M609.408 149.376 277.76 489.6a32 32 0 0 0 0 44.672l331.648 340.352a29.12 29.12 0 0 0 41.728 0 30.592 30.592 0 0 0 0-42.752L339.264 511.936l311.872-319.872a30.592 30.592 0 0 0 0-42.688 29.12 29.12 0 0 0-41.728 0z"></path>
  </symbol>
  <symbol xmlns="http://www.w3.org/2000/svg" viewBox="0 0 1024 1024" id="arrow-right-icon">
    <path d="M340.864 149.312a30.592 30.592 0 0 0 0 42.752L652.736 512 340.864 831.872a30.592 30.592 0 0 0 0 42.752 29.12 29.12 0 0 0 41.728 0L714.24 534.336a32 32 0 0 0 0-44.672L382.592 149.376a29.12 29.12 0 0 0-41.728 0z"></path>
  </symbol>
  <symbol xmlns="http://www.w3.org/2000/svg" aria-label="CSS3" role="img" viewBox="0 0 512 512" id="css-icon">
    <path fill="#264de4" d="M72 460L30 0h451l-41 460-184 52"></path>
    <path fill="#2965f1" d="M256 37V472l149-41 35-394"></path>
    <path fill="#ebebeb" d="m114 94h142v56H119m5 58h132v57H129m3 28h56l4 45 64 17v59L139 382"></path>
    <path fill="#ffffff" d="m256 208v57h69l-7 73-62 17v59l115-32 26-288H256v56h80l-5.5 58Z"></path>
  </symbol>
  <symbol xmlns="http://www.w3.org/2000/svg" viewBox="0 0 1920 1920" id="email-icon">
    <path d="M0 1694.235h1920V226H0v1468.235ZM112.941 376.664V338.94H1807.06v37.723L960 1111.233l-847.059-734.57ZM1807.06 526.198v950.513l-351.134-438.89-88.32 70.475 378.353 472.998H174.042l378.353-472.998-88.32-70.475-351.134 438.89V526.198L960 1260.768l847.059-734.57Z" fill-rule="evenodd"></path>
  </symbol>
  <symbol version="1.0" xmlns="http://www.w3.org/2000/svg" preserveAspectRatio="xMidYMid meet" viewBox="0 0 162.000000 162.000000" id="favicon">
    <g transform="translate(0.000000,162.000000) scale(0.100000,-0.100000)" fill="#000000" stroke="none">
      <path d="M0 810 l0 -810 810 0 810 0 0 810 0 810 -810 0 -810 0 0 -810z m530
415 c5 -281 6 -286 46 -266 10 5 185 211 397 469 l60 72 178 0 c99 0 179 -4
179 -8 0 -4 -62 -81 -137 -171 -76 -90 -193 -230 -261 -310 -67 -80 -121 -150
-119 -154 1 -5 97 -132 212 -283 116 -152 238 -313 273 -360 l63 -84 -184 0
-184 0 -218 290 -218 290 -43 0 -44 0 0 -290 0 -290 -150 0 -150 0 0 685 0
686 148 -3 147 -3 5 -270z"></path>
    </g>
  </symbol>
  <symbol version="1.1" xmlns="http://www.w3.org/2000/svg" xmlns:xlink="http://www.w3.org/1999/xlink" preserveAspectRatio="xMidYMid" viewBox="-64 0 384 384" id="figma-icon">
    <g>
      <path d="M64,384 C99.328,384 128,355.328 128,320 L128,256 L64,256 C28.672,256 0,284.672 0,320 C0,355.328 28.672,384 64,384 Z" fill="#0ACF83"></path>
      <path d="M0,192 C0,156.672 28.672,128 64,128 L128,128 L128,256 L64,256 C28.672,256 0,227.328 0,192 Z" fill="#A259FF"></path>
      <path d="M0,64 C0,28.672 28.672,0 64,0 L128,0 L128,128 L64,128 C28.672,128 0,99.328 0,64 Z" fill="#F24E1E"></path>
      <path d="M128,0 L192,0 C227.328,0 256,28.672 256,64 C256,99.328 227.328,128 192,128 L128,128 L128,0 Z" fill="#FF7262"></path>
      <path d="M256,192 C256,227.328 227.328,256 192,256 C156.672,256 128,227.328 128,192 C128,156.672 156.672,128 192,128 C227.328,128 256,156.672 256,192 Z" fill="#1ABCFE"></path>
    </g>
  </symbol>
  <symbol version="1.1" xmlns="http://www.w3.org/2000/svg" viewBox="0 0 32 32" id="github-icon">
    <title>github</title>
    <path d="M16 1.375c-8.282 0-14.996 6.714-14.996 14.996 0 6.585 4.245 12.18 10.148 14.195l0.106 0.031c0.75 0.141 1.025-0.322 1.025-0.721 0-0.356-0.012-1.3-0.019-2.549-4.171 0.905-5.051-2.012-5.051-2.012-0.288-0.925-0.878-1.685-1.653-2.184l-0.016-0.009c-1.358-0.93 0.105-0.911 0.105-0.911 0.987 0.139 1.814 0.718 2.289 1.53l0.008 0.015c0.554 0.995 1.6 1.657 2.801 1.657 0.576 0 1.116-0.152 1.582-0.419l-0.016 0.008c0.072-0.791 0.421-1.489 0.949-2.005l0.001-0.001c-3.33-0.375-6.831-1.665-6.831-7.41-0-0.027-0.001-0.058-0.001-0.089 0-1.521 0.587-2.905 1.547-3.938l-0.003 0.004c-0.203-0.542-0.321-1.168-0.321-1.821 0-0.777 0.166-1.516 0.465-2.182l-0.014 0.034s1.256-0.402 4.124 1.537c1.124-0.321 2.415-0.506 3.749-0.506s2.625 0.185 3.849 0.53l-0.1-0.024c2.849-1.939 4.105-1.537 4.105-1.537 0.285 0.642 0.451 1.39 0.451 2.177 0 0.642-0.11 1.258-0.313 1.83l0.012-0.038c0.953 1.032 1.538 2.416 1.538 3.937 0 0.031-0 0.061-0.001 0.091l0-0.005c0 5.761-3.505 7.029-6.842 7.398 0.632 0.647 1.022 1.532 1.022 2.509 0 0.093-0.004 0.186-0.011 0.278l0.001-0.012c0 2.007-0.019 3.619-0.019 4.106 0 0.394 0.262 0.862 1.031 0.712 6.028-2.029 10.292-7.629 10.292-14.226 0-8.272-6.706-14.977-14.977-14.977-0.006 0-0.013 0-0.019 0h0.001z"></path>
  </symbol>
  <symbol version="1.1" xmlns="http://www.w3.org/2000/svg" id="sun-icon" viewBox="0 0 24 24">
    <path fill="#ffff00" fill-rule="evenodd" clip-rule="evenodd" d="M15.1058 0.408834C14.5723 0.265892 14.024 0.582475 13.881 1.11594L13.234 3.53075C13.091 4.06422 13.4076 4.61255 13.9411 4.7555C14.4746 4.89844 15.0229 4.58186 15.1658 4.04839L15.8129 1.63357C15.9558 1.10011 15.6392 0.551776 15.1058 0.408834ZM5.49994 11.9999C5.49994 15.5898 8.41009 18.4999 11.9999 18.4999C15.5898 18.4999 18.4999 15.5898 18.4999 11.9999C18.4999 8.41009 15.5898 5.49994 11.9999 5.49994C8.41009 5.49994 5.49994 8.41009 5.49994 11.9999ZM16.4999 11.9999C16.4999 14.4852 14.4852 16.4999 11.9999 16.4999C9.51466 16.4999 7.49994 14.4852 7.49994 11.9999C7.49994 9.51466 9.51466 7.49994 11.9999 7.49994C14.4852 7.49994 16.4999 9.51466 16.4999 11.9999ZM8.83406 19.9515C8.977 19.418 9.52534 19.1014 10.0588 19.2443C10.5923 19.3873 10.9088 19.9356 10.7659 20.4691L10.1189 22.8839C9.97592 23.4174 9.42758 23.734 8.89412 23.591C8.36065 23.4481 8.04407 22.8997 8.18701 22.3663L8.83406 19.9515ZM4.13873 15.3839C4.61702 15.1077 5.22861 15.2716 5.50475 15.7499C5.7809 16.2282 5.61702 16.8398 5.13873 17.1159L2.97366 18.3659C2.49537 18.6421 1.88378 18.4782 1.60764 17.9999C1.3315 17.5216 1.49537 16.91 1.97366 16.6339L4.13873 15.3839ZM22.3922 5.99994C22.1161 5.52165 21.5045 5.35777 21.0262 5.63391L18.8612 6.88391C18.3829 7.16006 18.219 7.77165 18.4951 8.24994C18.7713 8.72823 19.3829 8.89211 19.8612 8.61597L22.0262 7.36597C22.5045 7.08982 22.6684 6.47823 22.3922 5.99994ZM4.04839 8.83405C4.58186 8.97699 4.89844 9.52533 4.7555 10.0588C4.61256 10.5922 4.06422 10.9088 3.53076 10.7659L1.11594 10.1188C0.582475 9.97591 0.265892 9.42758 0.408834 8.89411C0.551776 8.36065 1.10011 8.04406 1.63358 8.187L4.04839 8.83405ZM23.5911 15.1057C23.734 14.5723 23.4174 14.0239 22.8839 13.881L20.4691 13.2339C19.9357 13.091 19.3873 13.4076 19.2444 13.941C19.1014 14.4745 19.418 15.0228 19.9515 15.1658L22.3663 15.8128C22.8998 15.9558 23.4481 15.6392 23.5911 15.1057ZM8.61597 4.13872C8.89211 4.61702 8.72824 5.22861 8.24994 5.50475C7.77165 5.78089 7.16006 5.61702 6.88392 5.13872L5.63392 2.97366C5.35778 2.49537 5.52165 1.88378 5.99994 1.60764C6.47824 1.33149 7.08983 1.49537 7.36597 1.97366L8.61597 4.13872ZM17.9999 22.3922C18.4782 22.1161 18.6421 21.5045 18.366 21.0262L17.116 18.8611C16.8398 18.3828 16.2282 18.2189 15.7499 18.4951C15.2717 18.7712 15.1078 19.3828 15.3839 19.8611L16.6339 22.0262C16.9101 22.5045 17.5217 22.6683 17.9999 22.3922Z" fill-opacity="0.85"></path>
  </symbol>
    <symbol version="1.1" xmlns="http://www.w3.org/2000/svg" id="moon-icon" viewBox="0 0 24 24">
    <path fill="#5d5fef" fill-rule="evenodd" clip-rule="evenodd" d="M2.61147 18.0457C5.0748 21.132 9.71928 22.7149 13.5919 21.6772C18.9266 20.2478 22.0924 14.7644 20.663 9.42982C19.6252 5.55659 15.9325 2.32589 12.0277 1.73621C11.2127 1.61313 10.6071 2.47344 10.9979 3.19912C12.8876 6.70831 13.0427 9.7111 11.534 12.324C10.0252 14.9371 7.34714 16.3042 3.3634 16.4223C2.5395 16.4468 2.09729 17.4015 2.61147 18.0457ZM18.7312 9.94745C19.8747 14.2151 17.342 18.6018 13.0743 19.7454C10.6411 20.3974 7.33621 19.7474 5.25409 18.2326C8.72755 17.6779 11.7029 16.0313 13.266 13.3241C14.8291 10.6168 14.7602 7.22331 13.5035 3.9377C15.8565 4.98321 18.079 7.51366 18.7312 9.94745Z" fill-opacity="0.85"></path>
  </symbol>
</svg>